<svg width="570" height="688" viewBox="0 0 570 688" fill="none" xmlns="http://www.w3.org/2000/svg">
<rect width="570" height="688" fill="white"/>
<ellipse cx="191.5" cy="260.5" rx="36.5" ry="35.5" fill="black"/>
<ellipse cx="191.5" cy="260.5" rx="36.5" ry="35.5" fill="black"/>
<ellipse cx="347.5" cy="260.5" rx="36.5" ry="35.5" fill="black"/>
<ellipse cx="347.5" cy="260.5" rx="36.5" ry="35.5" fill="black"/>
<path d="M251.692 464.999L186.054 413.625C182.587 410.878 177.867 409.341 172.947 409.358C168.027 409.375 163.317 410.944 159.869 413.715C152.594 419.489 152.625 428.629 159.939 434.354L238.518 495.856C245.832 501.581 257.615 501.54 264.89 495.766L462.614 338.97C469.889 333.195 469.858 324.055 462.544 318.331C459.077 315.583 454.357 314.047 449.437 314.063C444.517 314.08 439.807 315.649 436.359 318.42L251.692 464.999Z" fill="#03BF65"/>
</svg>
